<mxfile host="app.diagrams.net" modified="2023-07-06T14:56:52.396Z" agent="Mozilla/5.0 (Windows NT 10.0; Win64; x64) AppleWebKit/537.36 (KHTML, like Gecko) Chrome/114.0.0.0 Safari/537.36 Edg/114.0.1823.67" etag="k2FaySt3EoiIW8hFNDYN" version="21.6.1" type="github">
  <diagram name="第 1 页" id="zcplNiWiQ_FCGism16bb">
    <mxGraphModel dx="2019" dy="-14" grid="1" gridSize="10" guides="1" tooltips="1" connect="1" arrows="1" fold="1" page="1" pageScale="1" pageWidth="827" pageHeight="1169" math="0" shadow="0">
      <root>
        <mxCell id="0" />
        <mxCell id="1" parent="0" />
        <mxCell id="uj7T19pWbRiO4xiEkIur-2" value="" style="rounded=0;whiteSpace=wrap;html=1;fillColor=none;dashed=1;strokeWidth=2;strokeColor=#FF0000;" vertex="1" parent="1">
          <mxGeometry x="670" y="1190" width="340" height="340" as="geometry" />
        </mxCell>
        <mxCell id="uj7T19pWbRiO4xiEkIur-1" value="" style="rounded=0;whiteSpace=wrap;html=1;fillColor=none;dashed=1;strokeWidth=2;strokeColor=#FF0000;" vertex="1" parent="1">
          <mxGeometry x="70" y="1190" width="340" height="340" as="geometry" />
        </mxCell>
        <mxCell id="x_UJu9ekjDO94jKZeD8l-2" value="" style="rounded=0;whiteSpace=wrap;html=1;" parent="1" vertex="1">
          <mxGeometry x="80" y="1240" width="320" height="200" as="geometry" />
        </mxCell>
        <mxCell id="x_UJu9ekjDO94jKZeD8l-3" value="" style="rounded=0;whiteSpace=wrap;html=1;fillColor=#4D4D4D;" parent="1" vertex="1">
          <mxGeometry x="160" y="1260" width="40" height="40" as="geometry" />
        </mxCell>
        <mxCell id="x_UJu9ekjDO94jKZeD8l-4" value="" style="rounded=0;whiteSpace=wrap;html=1;fillColor=#4D4D4D;" parent="1" vertex="1">
          <mxGeometry x="280" y="1260" width="40" height="40" as="geometry" />
        </mxCell>
        <mxCell id="x_UJu9ekjDO94jKZeD8l-5" value="" style="rounded=0;whiteSpace=wrap;html=1;fillColor=#4D4D4D;" parent="1" vertex="1">
          <mxGeometry x="100" y="1320" width="40" height="40" as="geometry" />
        </mxCell>
        <mxCell id="x_UJu9ekjDO94jKZeD8l-6" value="" style="rounded=0;whiteSpace=wrap;html=1;fillColor=#4D4D4D;" parent="1" vertex="1">
          <mxGeometry x="280" y="1380" width="40" height="40" as="geometry" />
        </mxCell>
        <mxCell id="x_UJu9ekjDO94jKZeD8l-7" value="&lt;font style=&quot;font-size: 36px;&quot;&gt;source host&lt;/font&gt;" style="rounded=0;whiteSpace=wrap;html=1;" parent="1" vertex="1">
          <mxGeometry x="80" y="1460" width="320" height="60" as="geometry" />
        </mxCell>
        <mxCell id="x_UJu9ekjDO94jKZeD8l-8" value="&lt;font style=&quot;font-size: 24px;&quot;&gt;Remaining dirty RAM&lt;/font&gt;" style="text;html=1;strokeColor=none;fillColor=none;align=center;verticalAlign=middle;whiteSpace=wrap;rounded=0;" parent="1" vertex="1">
          <mxGeometry x="80" y="1200" width="320" height="40" as="geometry" />
        </mxCell>
        <mxCell id="x_UJu9ekjDO94jKZeD8l-9" style="edgeStyle=orthogonalEdgeStyle;rounded=0;orthogonalLoop=1;jettySize=auto;html=1;exitX=1;exitY=0.5;exitDx=0;exitDy=0;entryX=0;entryY=0.5;entryDx=0;entryDy=0;endSize=10;startSize=10;strokeWidth=3;" parent="1" edge="1" target="x_UJu9ekjDO94jKZeD8l-10">
          <mxGeometry relative="1" as="geometry">
            <mxPoint x="400" y="1339.5" as="sourcePoint" />
            <mxPoint x="640" y="1339.5" as="targetPoint" />
          </mxGeometry>
        </mxCell>
        <mxCell id="x_UJu9ekjDO94jKZeD8l-10" value="" style="rounded=0;whiteSpace=wrap;html=1;" parent="1" vertex="1">
          <mxGeometry x="680" y="1240" width="320" height="200" as="geometry" />
        </mxCell>
        <mxCell id="x_UJu9ekjDO94jKZeD8l-11" value="" style="rounded=0;whiteSpace=wrap;html=1;fillColor=#E6E6E6;" parent="1" vertex="1">
          <mxGeometry x="700" y="1260" width="40" height="40" as="geometry" />
        </mxCell>
        <mxCell id="x_UJu9ekjDO94jKZeD8l-12" value="" style="rounded=0;whiteSpace=wrap;html=1;fillColor=#E6E6E6;" parent="1" vertex="1">
          <mxGeometry x="820" y="1260" width="40" height="40" as="geometry" />
        </mxCell>
        <mxCell id="x_UJu9ekjDO94jKZeD8l-14" value="" style="rounded=0;whiteSpace=wrap;html=1;fillColor=#E6E6E6;" parent="1" vertex="1">
          <mxGeometry x="940" y="1260" width="40" height="40" as="geometry" />
        </mxCell>
        <mxCell id="x_UJu9ekjDO94jKZeD8l-15" value="" style="rounded=0;whiteSpace=wrap;html=1;fillColor=#E6E6E6;" parent="1" vertex="1">
          <mxGeometry x="760" y="1320" width="40" height="40" as="geometry" />
        </mxCell>
        <mxCell id="x_UJu9ekjDO94jKZeD8l-16" value="" style="rounded=0;whiteSpace=wrap;html=1;fillColor=#E6E6E6;" parent="1" vertex="1">
          <mxGeometry x="820" y="1320" width="40" height="40" as="geometry" />
        </mxCell>
        <mxCell id="x_UJu9ekjDO94jKZeD8l-17" value="" style="rounded=0;whiteSpace=wrap;html=1;fillColor=#E6E6E6;" parent="1" vertex="1">
          <mxGeometry x="880" y="1320" width="40" height="40" as="geometry" />
        </mxCell>
        <mxCell id="x_UJu9ekjDO94jKZeD8l-18" value="" style="rounded=0;whiteSpace=wrap;html=1;fillColor=#E6E6E6;" parent="1" vertex="1">
          <mxGeometry x="940" y="1320" width="40" height="40" as="geometry" />
        </mxCell>
        <mxCell id="x_UJu9ekjDO94jKZeD8l-19" value="" style="rounded=0;whiteSpace=wrap;html=1;fillColor=#E6E6E6;" parent="1" vertex="1">
          <mxGeometry x="700" y="1380" width="40" height="40" as="geometry" />
        </mxCell>
        <mxCell id="x_UJu9ekjDO94jKZeD8l-20" value="" style="rounded=0;whiteSpace=wrap;html=1;fillColor=#E6E6E6;" parent="1" vertex="1">
          <mxGeometry x="760" y="1380" width="40" height="40" as="geometry" />
        </mxCell>
        <mxCell id="x_UJu9ekjDO94jKZeD8l-21" value="" style="rounded=0;whiteSpace=wrap;html=1;fillColor=#E6E6E6;" parent="1" vertex="1">
          <mxGeometry x="820" y="1380" width="40" height="40" as="geometry" />
        </mxCell>
        <mxCell id="x_UJu9ekjDO94jKZeD8l-22" value="" style="rounded=0;whiteSpace=wrap;html=1;fillColor=#E6E6E6;" parent="1" vertex="1">
          <mxGeometry x="940" y="1380" width="40" height="40" as="geometry" />
        </mxCell>
        <mxCell id="x_UJu9ekjDO94jKZeD8l-23" value="&lt;font style=&quot;font-size: 36px;&quot;&gt;destination host&lt;/font&gt;" style="rounded=0;whiteSpace=wrap;html=1;" parent="1" vertex="1">
          <mxGeometry x="680" y="1460" width="320" height="60" as="geometry" />
        </mxCell>
        <mxCell id="x_UJu9ekjDO94jKZeD8l-24" value="&lt;font style=&quot;font-size: 24px;&quot;&gt;RAM state in post-copy&lt;/font&gt;" style="text;html=1;strokeColor=none;fillColor=none;align=center;verticalAlign=middle;whiteSpace=wrap;rounded=0;" parent="1" vertex="1">
          <mxGeometry x="680" y="1200" width="320" height="40" as="geometry" />
        </mxCell>
        <mxCell id="x_UJu9ekjDO94jKZeD8l-25" value="&lt;font style=&quot;font-size: 28px;&quot;&gt;hybrid post-copy&lt;/font&gt;" style="text;html=1;strokeColor=none;fillColor=#CCFFFF;align=center;verticalAlign=middle;whiteSpace=wrap;rounded=1;shadow=1;" parent="1" vertex="1">
          <mxGeometry x="420" y="1380" width="240" height="40" as="geometry" />
        </mxCell>
        <mxCell id="x_UJu9ekjDO94jKZeD8l-30" value="" style="shape=image;html=1;verticalAlign=top;verticalLabelPosition=bottom;labelBackgroundColor=#ffffff;imageAspect=0;aspect=fixed;image=https://cdn1.iconfinder.com/data/icons/material-audio-video/22/loop-128.png" parent="1" vertex="1">
          <mxGeometry x="440" y="1280" width="40" height="40" as="geometry" />
        </mxCell>
        <mxCell id="x_UJu9ekjDO94jKZeD8l-31" value="" style="rounded=0;whiteSpace=wrap;html=1;" parent="1" vertex="1">
          <mxGeometry x="490" y="1280" width="20" height="40" as="geometry" />
        </mxCell>
        <mxCell id="x_UJu9ekjDO94jKZeD8l-32" value="" style="rounded=0;whiteSpace=wrap;html=1;" parent="1" vertex="1">
          <mxGeometry x="520" y="1280" width="20" height="40" as="geometry" />
        </mxCell>
        <mxCell id="x_UJu9ekjDO94jKZeD8l-33" value="" style="rounded=0;whiteSpace=wrap;html=1;" parent="1" vertex="1">
          <mxGeometry x="550" y="1280" width="20" height="40" as="geometry" />
        </mxCell>
        <mxCell id="x_UJu9ekjDO94jKZeD8l-34" value="" style="rounded=0;whiteSpace=wrap;html=1;" parent="1" vertex="1">
          <mxGeometry x="580" y="1280" width="20" height="40" as="geometry" />
        </mxCell>
        <mxCell id="x_UJu9ekjDO94jKZeD8l-35" value="&lt;font style=&quot;font-size: 24px;&quot;&gt;...&lt;/font&gt;" style="text;html=1;strokeColor=none;fillColor=none;align=center;verticalAlign=middle;whiteSpace=wrap;rounded=0;" parent="1" vertex="1">
          <mxGeometry x="600" y="1280" width="40" height="40" as="geometry" />
        </mxCell>
        <mxCell id="x_UJu9ekjDO94jKZeD8l-36" value="&lt;font style=&quot;font-size: 24px;&quot;&gt;network&lt;br&gt;page pulling&lt;/font&gt;" style="text;html=1;strokeColor=none;fillColor=none;align=center;verticalAlign=middle;whiteSpace=wrap;rounded=0;" parent="1" vertex="1">
          <mxGeometry x="470" y="1200" width="150" height="60" as="geometry" />
        </mxCell>
        <mxCell id="x_UJu9ekjDO94jKZeD8l-37" value="" style="endArrow=classic;html=1;rounded=0;exitX=0.2;exitY=1;exitDx=0;exitDy=0;exitPerimeter=0;" parent="1" source="x_UJu9ekjDO94jKZeD8l-36" edge="1">
          <mxGeometry width="50" height="50" relative="1" as="geometry">
            <mxPoint x="410" y="1390" as="sourcePoint" />
            <mxPoint x="500" y="1280" as="targetPoint" />
          </mxGeometry>
        </mxCell>
        <mxCell id="x_UJu9ekjDO94jKZeD8l-38" value="" style="endArrow=classic;html=1;rounded=0;exitX=0.4;exitY=1;exitDx=0;exitDy=0;exitPerimeter=0;entryX=0.5;entryY=0;entryDx=0;entryDy=0;" parent="1" source="x_UJu9ekjDO94jKZeD8l-36" target="x_UJu9ekjDO94jKZeD8l-32" edge="1">
          <mxGeometry width="50" height="50" relative="1" as="geometry">
            <mxPoint x="522" y="1270" as="sourcePoint" />
            <mxPoint x="510" y="1290" as="targetPoint" />
          </mxGeometry>
        </mxCell>
        <mxCell id="x_UJu9ekjDO94jKZeD8l-39" value="" style="endArrow=classic;html=1;rounded=0;exitX=0.6;exitY=1;exitDx=0;exitDy=0;exitPerimeter=0;entryX=0.5;entryY=0;entryDx=0;entryDy=0;" parent="1" source="x_UJu9ekjDO94jKZeD8l-36" target="x_UJu9ekjDO94jKZeD8l-33" edge="1">
          <mxGeometry width="50" height="50" relative="1" as="geometry">
            <mxPoint x="532" y="1280" as="sourcePoint" />
            <mxPoint x="520" y="1300" as="targetPoint" />
          </mxGeometry>
        </mxCell>
        <mxCell id="x_UJu9ekjDO94jKZeD8l-40" value="" style="endArrow=classic;html=1;rounded=0;exitX=0.8;exitY=1;exitDx=0;exitDy=0;exitPerimeter=0;entryX=0.5;entryY=0;entryDx=0;entryDy=0;" parent="1" source="x_UJu9ekjDO94jKZeD8l-36" target="x_UJu9ekjDO94jKZeD8l-34" edge="1">
          <mxGeometry width="50" height="50" relative="1" as="geometry">
            <mxPoint x="542" y="1290" as="sourcePoint" />
            <mxPoint x="530" y="1310" as="targetPoint" />
          </mxGeometry>
        </mxCell>
      </root>
    </mxGraphModel>
  </diagram>
</mxfile>
